<svg width="1000" height="1000" viewBox="0 0 1000 1000" fill="none" xmlns="http://www.w3.org/2000/svg">
<rect width="1000" height="1000" fill="white"/>
<path opacity="0.01" fill-rule="evenodd" clip-rule="evenodd" d="M0 0H1000V1000H0V0Z" fill="white"/>
<mask id="mask0_0_115" style="mask-type:alpha" maskUnits="userSpaceOnUse" x="0" y="0" width="1000" height="1000">
<path fill-rule="evenodd" clip-rule="evenodd" d="M0 0H1000V1000H0V0Z" fill="white"/>
</mask>
<g mask="url(#mask0_0_115)">
<path d="M332.585 693.61C329.142 693.131 325.667 694.234 323.132 696.613C320.597 698.991 319.273 702.389 319.532 705.855L341.532 1000.86C341.98 1006.86 346.981 1011.5 353 1011.5H666.996C670.528 1011.5 673.864 1009.88 676.044 1007.1C678.224 1004.32 679.006 1000.69 678.165 997.262L615.165 740.262C614.044 735.687 610.247 732.259 605.582 731.61L332.585 693.61Z" fill="url(#paint0_linear_0_115)" stroke="#453613" stroke-width="23" stroke-linecap="square" stroke-linejoin="round"/>
<path d="M190.088 310.353C186.61 312.208 184.325 315.714 184.032 319.645L157.528 675.141C157.209 679.414 159.293 683.51 162.935 685.769L478.935 881.769C482.479 883.967 486.935 884.074 490.581 882.049L832.581 692.049C836.232 690.021 838.496 686.172 838.496 681.996V314.996C838.496 310.718 836.122 306.794 832.332 304.809L793.137 284.278L684.794 107.975C682.716 104.594 679.042 102.523 675.074 102.496C671.106 102.469 667.404 104.49 665.281 107.843L613.991 188.827L518.408 137.849C514.981 136.021 510.862 136.047 507.458 137.917L426.329 182.494L386.957 114.249C384.967 110.8 381.335 108.626 377.356 108.502C373.376 108.377 369.615 110.32 367.414 113.638L262.524 271.72L190.088 310.353Z" fill="url(#paint1_linear_0_115)" stroke="#453613" stroke-width="23" stroke-linecap="square" stroke-linejoin="round"/>
</g>
<path d="M484.999 451.5C484.999 451.5 410.711 544.473 365.958 616.996C356.748 631.92 344.855 653.14 352.958 660.5C368.917 674.996 381.999 676.5 406.499 664.5C411.62 661.992 422.724 655.267 429.192 653.07C451.032 645.649 482.501 641.498 482.501 641.498" stroke="#453613" stroke-width="22" stroke-linecap="round" stroke-linejoin="round"/>
<path d="M427.5 801.5L599.5 693.5" stroke="#453613" stroke-width="22" stroke-linecap="round" stroke-linejoin="round"/>
<path d="M472.5 406.5L500.5 397.5L524 412" stroke="#453613" stroke-width="22" stroke-linecap="round" stroke-linejoin="round"/>
<path d="M174.5 379.5L273.5 352.5L474.993 355.851L558.995 355.58L725 351L848 374" stroke="#453613" stroke-width="22" stroke-linecap="round" stroke-linejoin="round"/>
<path fill-rule="evenodd" clip-rule="evenodd" d="M545.997 500C517.997 472 520.86 440.174 528.997 409C537.134 377.826 558.996 355.58 558.996 355.58L725.001 351C725.001 351 745.005 444 700.001 486C654.997 528 573.997 528 545.997 500Z" fill="#453613" fill-opacity="0.5"/>
<path fill-rule="evenodd" clip-rule="evenodd" d="M272.5 477.5C227.996 426.164 273.5 352.5 273.5 352.5L474.993 355.851C474.993 355.851 469.996 440 433.996 477.5C397.996 515 317.004 528.836 272.5 477.5Z" fill="#453613" fill-opacity="0.5"/>
<path fill-rule="evenodd" clip-rule="evenodd" d="M545.997 500C517.997 472 520.86 440.174 528.997 409C537.134 377.826 558.996 355.58 558.996 355.58L725.001 351C725.001 351 745.005 444 700.001 486C654.997 528 573.997 528 545.997 500Z" stroke="#453613" stroke-width="22" stroke-linecap="round" stroke-linejoin="round"/>
<path fill-rule="evenodd" clip-rule="evenodd" d="M272.5 477.5C227.996 426.164 273.5 352.5 273.5 352.5L474.993 355.851C474.993 355.851 469.996 440 433.996 477.5C397.996 515 317.004 528.836 272.5 477.5Z" stroke="#453613" stroke-width="22" stroke-linecap="round" stroke-linejoin="round"/>
<defs>
<linearGradient id="paint0_linear_0_115" x1="286.166" y1="709.687" x2="315.539" y2="1017.51" gradientUnits="userSpaceOnUse">
<stop stop-color="#FEDE75"/>
<stop offset="1" stop-color="#FFB017"/>
</linearGradient>
<linearGradient id="paint1_linear_0_115" x1="-20.9451" y1="272.528" x2="360.09" y2="1005.98" gradientUnits="userSpaceOnUse">
<stop stop-color="#FEDE75"/>
<stop offset="1" stop-color="#FFB017"/>
</linearGradient>
</defs>
</svg>
