<svg width="1000" height="1000" viewBox="0 0 1000 1000" fill="none" xmlns="http://www.w3.org/2000/svg">
<rect width="1000" height="1000" fill="white"/>
<path opacity="0.01" fill-rule="evenodd" clip-rule="evenodd" d="M0 0H1000V1000H0V0Z" fill="white"/>
<mask id="mask0_0_14" style="mask-type:alpha" maskUnits="userSpaceOnUse" x="0" y="0" width="1000" height="1000">
<path fill-rule="evenodd" clip-rule="evenodd" d="M0 0H1000V1000H0V0Z" fill="white"/>
</mask>
<g mask="url(#mask0_0_14)">
<path d="M332.585 693.61C329.142 693.131 325.667 694.234 323.132 696.613C320.597 698.991 319.273 702.389 319.532 705.855L341.532 1000.86C341.98 1006.86 346.981 1011.5 353 1011.5H666.996C670.528 1011.5 673.864 1009.88 676.044 1007.1C678.224 1004.32 679.006 1000.69 678.165 997.262L615.165 740.262C614.044 735.687 610.247 732.259 605.582 731.61L332.585 693.61Z" fill="url(#paint0_linear_0_14)" stroke="#453613" stroke-width="23" stroke-linecap="square" stroke-linejoin="round"/>
<path d="M190.088 310.353C186.61 312.208 184.325 315.714 184.032 319.645L157.528 675.141C157.209 679.414 159.293 683.51 162.935 685.769L478.935 881.769C482.479 883.967 486.935 884.074 490.581 882.049L832.581 692.049C836.232 690.021 838.496 686.172 838.496 681.996V314.996C838.496 310.718 836.122 306.794 832.332 304.809L793.137 284.278L684.794 107.975C682.716 104.594 679.042 102.523 675.074 102.496C671.106 102.469 667.404 104.49 665.281 107.843L613.991 188.827L518.408 137.849C514.981 136.021 510.862 136.047 507.458 137.917L426.329 182.494L386.957 114.249C384.967 110.8 381.335 108.626 377.356 108.502C373.376 108.377 369.615 110.32 367.414 113.638L262.524 271.72L190.088 310.353Z" fill="url(#paint1_linear_0_14)" stroke="#453613" stroke-width="23" stroke-linecap="square" stroke-linejoin="round"/>
</g>
<path d="M484.998 451.5C484.998 451.5 410.711 544.473 365.957 616.996C356.748 631.92 344.855 653.14 352.957 660.5C368.916 674.996 381.998 676.5 406.498 664.5C411.619 661.992 422.723 655.267 429.192 653.07C451.031 645.649 482.5 641.498 482.5 641.498" stroke="#453613" stroke-width="22" stroke-linecap="round" stroke-linejoin="round"/>
<path d="M312.5 355.5C351.249 361.996 389.998 403.498 389.998 403.498L329.996 465.996" stroke="#453613" stroke-width="22" stroke-linecap="round" stroke-linejoin="round"/>
<path d="M674.5 368.5C633.996 387.996 579.998 399.498 579.998 399.498C579.998 399.498 641.996 447.996 659.996 461.996" stroke="#453613" stroke-width="22" stroke-linecap="round" stroke-linejoin="round"/>
<path d="M343.5 755.5C343.5 755.5 344.004 735.004 353.5 733.5C362.996 731.996 376.996 777.996 385.996 774.996C392.658 772.775 398.772 762.336 401.499 757.062C402.403 755.313 404.391 754.367 406.309 754.811C411.832 756.09 422.557 758.205 424.996 755.996C428.317 752.989 446.486 730.251 450.996 727.996C455.075 725.957 464.864 733.332 466.697 734.761C466.898 734.917 467.07 735.084 467.236 735.277C469.058 737.388 480.732 750.656 484.996 748.996C489.626 747.193 499.212 718.708 503.996 717.996C507.176 717.523 514.083 730.053 518.356 738.507C519.87 741.502 524.222 741.544 525.723 738.542L527.323 735.343C528.597 732.795 532.05 732.358 533.919 734.507L547.292 749.887C548.772 751.589 551.366 751.731 553.024 750.201L561.104 742.743C562.256 741.679 563.924 741.387 565.369 741.995L578.891 747.689C580.685 748.444 582.763 747.798 583.812 746.158L597.996 723.996" stroke="#453613" stroke-width="22" stroke-linecap="round" stroke-linejoin="round"/>
<defs>
<linearGradient id="paint0_linear_0_14" x1="286.166" y1="709.687" x2="315.539" y2="1017.51" gradientUnits="userSpaceOnUse">
<stop stop-color="#FEDE75"/>
<stop offset="1" stop-color="#FFB017"/>
</linearGradient>
<linearGradient id="paint1_linear_0_14" x1="-20.9451" y1="272.528" x2="360.09" y2="1005.98" gradientUnits="userSpaceOnUse">
<stop stop-color="#FEDE75"/>
<stop offset="1" stop-color="#FFB017"/>
</linearGradient>
</defs>
</svg>
