<svg width="1000" height="1000" viewBox="0 0 1000 1000" fill="none" xmlns="http://www.w3.org/2000/svg">
<rect width="1000" height="1000" fill="white"/>
<path opacity="0.01" fill-rule="evenodd" clip-rule="evenodd" d="M0 0H1000V1000H0V0Z" fill="white"/>
<mask id="mask0_0_40" style="mask-type:alpha" maskUnits="userSpaceOnUse" x="0" y="0" width="1000" height="1000">
<path fill-rule="evenodd" clip-rule="evenodd" d="M0 0H1000V1000H0V0Z" fill="white"/>
</mask>
<g mask="url(#mask0_0_40)">
<path d="M332.585 693.61C329.142 693.131 325.667 694.234 323.132 696.613C320.597 698.991 319.273 702.389 319.532 705.855L341.532 1000.86C341.98 1006.86 346.981 1011.5 353 1011.5H666.996C670.528 1011.5 673.864 1009.88 676.044 1007.1C678.224 1004.32 679.006 1000.69 678.165 997.262L615.165 740.262C614.044 735.687 610.247 732.259 605.582 731.61L332.585 693.61Z" fill="url(#paint0_linear_0_40)" stroke="#453613" stroke-width="23" stroke-linecap="square" stroke-linejoin="round"/>
<path d="M190.088 310.353C186.61 312.208 184.325 315.714 184.032 319.645L157.528 675.141C157.209 679.414 159.293 683.51 162.935 685.769L478.935 881.769C482.479 883.967 486.935 884.074 490.581 882.049L832.581 692.049C836.232 690.021 838.496 686.172 838.496 681.996V314.996C838.496 310.718 836.122 306.794 832.332 304.809L793.137 284.278L684.794 107.975C682.716 104.594 679.042 102.523 675.074 102.496C671.106 102.469 667.404 104.49 665.281 107.843L613.991 188.827L518.408 137.849C514.981 136.021 510.862 136.047 507.458 137.917L426.329 182.494L386.957 114.249C384.967 110.8 381.335 108.626 377.356 108.502C373.376 108.377 369.615 110.32 367.414 113.638L262.524 271.72L190.088 310.353Z" fill="url(#paint1_linear_0_40)" stroke="#453613" stroke-width="23" stroke-linecap="square" stroke-linejoin="round"/>
</g>
<path d="M484.998 451.5C484.998 451.5 410.711 544.473 365.957 616.996C356.748 631.92 344.855 653.14 352.957 660.5C368.916 674.996 381.998 676.5 406.498 664.5C411.619 661.992 422.723 655.267 429.192 653.07C451.031 645.649 482.5 641.498 482.5 641.498" stroke="#453613" stroke-width="22" stroke-linecap="round" stroke-linejoin="round"/>
<path d="M344.5 414.5C344.5 414.5 347 395 351 386C355 377 365 372 380 372C395 372 403.973 393.699 408 409C412.026 424.301 406.392 440.972 388 454C364 471 328 458 311 440C294 422 292.058 389.477 311 359C333.996 322 373.704 297.211 408 308C446.293 320.047 451.282 373.762 450.996 409C450.573 461 408 492 364 500C331.499 505.909 299.689 499.49 272.277 461.113C247.277 426.113 253.746 359.514 288 300C311 260.039 351 245.039 388 238C422.032 231.526 458 234 458 234" stroke="#453613" stroke-width="22" stroke-linecap="round" stroke-linejoin="round"/>
<path d="M619.29 407.208C619.29 407.208 635.763 363.012 667.184 379.413C684.451 388.426 686.156 408.939 680.841 423.758C673.815 443.352 655.626 448.018 632.64 447.652C613.479 447.347 588.207 430.951 583.467 407.681C578.728 384.412 586.732 359.509 617.64 340.652C651.904 319.749 687.398 322.243 706.605 346.731C731.64 378.652 728.232 423.318 710.779 454.019C684.64 500 656.825 506.779 613.243 495.947C581.124 487.964 556.274 464.09 543.64 418.652C532.119 377.213 554.537 317.685 598.64 288.652C650.85 254.285 712.75 269.237 737.64 296.652C790.608 354.994 767.679 465.413 767.679 465.413" stroke="#453613" stroke-width="22" stroke-linecap="round" stroke-linejoin="round"/>
<defs>
<linearGradient id="paint0_linear_0_40" x1="286.166" y1="709.687" x2="315.539" y2="1017.51" gradientUnits="userSpaceOnUse">
<stop stop-color="#FEDE75"/>
<stop offset="1" stop-color="#FFB017"/>
</linearGradient>
<linearGradient id="paint1_linear_0_40" x1="-20.9451" y1="272.528" x2="360.09" y2="1005.98" gradientUnits="userSpaceOnUse">
<stop stop-color="#FEDE75"/>
<stop offset="1" stop-color="#FFB017"/>
</linearGradient>
</defs>
</svg>
