<svg width="1000" height="1000" viewBox="0 0 1000 1000" fill="none" xmlns="http://www.w3.org/2000/svg">
<rect width="1000" height="1000" fill="white"/>
<path opacity="0.01" fill-rule="evenodd" clip-rule="evenodd" d="M0 0H1000V1000H0V0Z" fill="white"/>
<mask id="mask0_0_45" style="mask-type:alpha" maskUnits="userSpaceOnUse" x="0" y="0" width="1000" height="1000">
<path fill-rule="evenodd" clip-rule="evenodd" d="M0 0H1000V1000H0V0Z" fill="white"/>
</mask>
<g mask="url(#mask0_0_45)">
<path d="M332.585 693.61C329.142 693.131 325.667 694.234 323.132 696.613C320.597 698.991 319.273 702.389 319.532 705.855L341.532 1000.86C341.98 1006.86 346.981 1011.5 353 1011.5H666.996C670.528 1011.5 673.864 1009.88 676.044 1007.1C678.224 1004.32 679.006 1000.69 678.165 997.262L615.165 740.262C614.044 735.687 610.247 732.259 605.582 731.61L332.585 693.61Z" fill="url(#paint0_linear_0_45)" stroke="#453613" stroke-width="23" stroke-linecap="square" stroke-linejoin="round"/>
<path d="M190.088 310.353C186.61 312.208 184.325 315.714 184.032 319.645L157.528 675.141C157.209 679.414 159.293 683.51 162.935 685.769L478.935 881.769C482.479 883.967 486.935 884.074 490.581 882.049L832.581 692.049C836.232 690.021 838.496 686.172 838.496 681.996V314.996C838.496 310.718 836.122 306.794 832.332 304.809L793.137 284.278L684.794 107.975C682.716 104.594 679.042 102.523 675.074 102.496C671.106 102.469 667.404 104.49 665.281 107.843L613.991 188.827L518.408 137.849C514.981 136.021 510.862 136.047 507.458 137.917L426.329 182.494L386.957 114.249C384.967 110.8 381.335 108.626 377.356 108.502C373.376 108.377 369.615 110.32 367.414 113.638L262.524 271.72L190.088 310.353Z" fill="url(#paint1_linear_0_45)" stroke="#453613" stroke-width="23" stroke-linecap="square" stroke-linejoin="round"/>
</g>
<path d="M484.998 451.5C484.998 451.5 410.711 544.473 365.957 616.996C356.748 631.92 344.855 653.14 352.957 660.5C368.916 674.996 381.998 676.5 406.498 664.5C411.619 661.992 422.723 655.267 429.192 653.07C451.031 645.649 482.5 641.498 482.5 641.498" stroke="#453613" stroke-width="22" stroke-linecap="round" stroke-linejoin="round"/>
<path d="M402.5 747.5C402.5 747.5 457.996 782 472.57 788.652C482.755 793.301 516.042 796.865 519.996 793.652C535.996 780.652 569.641 731.652 569.641 731.652" stroke="#453613" stroke-width="22" stroke-linecap="round" stroke-linejoin="round"/>
<path fill-rule="evenodd" clip-rule="evenodd" d="M241.969 443.332C229.969 425.453 289.062 377.844 332 355C368.969 335.332 411.969 338.332 443 350C461.972 357.134 469.746 384.725 464 398C458.254 411.275 443 424.559 423.574 420.34C396.961 414.56 386.067 385.012 353.711 407.672C324.431 428.179 322.891 443.461 302.969 457.332C283.047 471.203 253.969 461.211 241.969 443.332Z" stroke="#453613" stroke-width="22" stroke-linecap="round" stroke-linejoin="round"/>
<path fill-rule="evenodd" clip-rule="evenodd" d="M402.524 379.885C406.223 366.355 420.192 350.711 447.201 355.371C459.768 357.539 469.549 384.725 463.803 398C458.057 411.275 436.7 421.451 423.325 417.914C402.524 412.414 398.825 393.414 402.524 379.885Z" fill="#453613"/>
<path fill-rule="evenodd" clip-rule="evenodd" d="M550.969 443.332C538.969 425.453 598.062 377.844 641 355C677.969 335.332 720.969 338.332 752 350C770.972 357.134 778.746 384.725 773 398C767.254 411.275 752 424.559 732.574 420.34C705.961 414.56 695.067 385.012 662.711 407.672C633.431 428.179 631.891 443.461 611.969 457.332C592.047 471.203 562.969 461.211 550.969 443.332Z" stroke="#453613" stroke-width="22" stroke-linecap="round" stroke-linejoin="round"/>
<path fill-rule="evenodd" clip-rule="evenodd" d="M711.524 379.885C715.223 366.355 729.192 350.711 756.201 355.371C768.768 357.539 778.549 384.725 772.803 398C767.057 411.275 745.7 421.451 732.325 417.914C711.524 412.414 707.825 393.414 711.524 379.885Z" fill="#453613"/>
<defs>
<linearGradient id="paint0_linear_0_45" x1="286.166" y1="709.687" x2="315.539" y2="1017.51" gradientUnits="userSpaceOnUse">
<stop stop-color="#FEDE75"/>
<stop offset="1" stop-color="#FFB017"/>
</linearGradient>
<linearGradient id="paint1_linear_0_45" x1="-20.9451" y1="272.528" x2="360.09" y2="1005.98" gradientUnits="userSpaceOnUse">
<stop stop-color="#FEDE75"/>
<stop offset="1" stop-color="#FFB017"/>
</linearGradient>
</defs>
</svg>
