<svg width="480" height="480" viewBox="0 0 480 480" fill="none" xmlns="http://www.w3.org/2000/svg">
<g clip-path="url(#clip0_0_10)">
<rect width="480" height="480" fill="white"/>
<mask id="mask0_0_10" style="mask-type:alpha" maskUnits="userSpaceOnUse" x="5" y="5" width="470" height="470">
<path d="M467 240C467 365.369 365.369 467 240 467C114.631 467 13 365.369 13 240C13 114.631 114.631 13 240 13C365.369 13 467 114.631 467 240Z" fill="white"/>
<path d="M467 240C467 365.369 365.369 467 240 467C114.631 467 13 365.369 13 240C13 114.631 114.631 13 240 13C365.369 13 467 114.631 467 240Z" stroke="white" stroke-width="16"/>
</mask>
<g mask="url(#mask0_0_10)">
<mask id="path-2-outside-1_0_10" maskUnits="userSpaceOnUse" x="-20.4871" y="179" width="521" height="627" fill="black">
<rect fill="white" x="-20.4871" y="179" width="521" height="627"/>
<path fill-rule="evenodd" clip-rule="evenodd" d="M150 197L185.923 259.221L240 228L294.077 259.221L330 197L401.847 321.442L482.487 368V648L240 788L-2.48712 648V368L78.1532 321.442L150 197Z"/>
</mask>
<path fill-rule="evenodd" clip-rule="evenodd" d="M150 197L185.923 259.221L240 228L294.077 259.221L330 197L401.847 321.442L482.487 368V648L240 788L-2.48712 648V368L78.1532 321.442L150 197Z" fill="url(#paint0_linear_0_10)"/>
<path d="M185.923 259.221L170.335 268.221C172.722 272.355 176.653 275.372 181.265 276.608C185.876 277.843 190.789 277.197 194.923 274.81L185.923 259.221ZM150 197L165.588 188C162.373 182.431 156.431 179 150 179C143.569 179 137.627 182.431 134.412 188L150 197ZM240 228L249 212.412C243.431 209.196 236.569 209.196 231 212.412L240 228ZM294.077 259.221L285.077 274.81C293.686 279.78 304.694 276.83 309.665 268.221L294.077 259.221ZM330 197L345.588 188C342.373 182.431 336.431 179 330 179C323.569 179 317.627 182.431 314.412 188L330 197ZM401.847 321.442L386.258 330.442C387.838 333.179 390.11 335.451 392.847 337.031L401.847 321.442ZM482.487 368H500.487C500.487 361.569 497.056 355.627 491.487 352.412L482.487 368ZM482.487 648L491.487 663.588C497.056 660.373 500.487 654.431 500.487 648H482.487ZM240 788L231 803.588C236.569 806.804 243.431 806.804 249 803.588L240 788ZM-2.48712 648H-20.4871C-20.4871 654.431 -17.0563 660.373 -11.4871 663.588L-2.48712 648ZM-2.48712 368L-11.4871 352.412C-17.0563 355.627 -20.4871 361.569 -20.4871 368H-2.48712ZM78.1532 321.442L87.1532 337.031C89.8895 335.451 92.1618 333.179 93.7417 330.442L78.1532 321.442ZM201.512 250.221L165.588 188L134.412 206L170.335 268.221L201.512 250.221ZM231 212.412L176.923 243.633L194.923 274.81L249 243.588L231 212.412ZM303.077 243.633L249 212.412L231 243.588L285.077 274.81L303.077 243.633ZM309.665 268.221L345.588 206L314.412 188L278.488 250.221L309.665 268.221ZM314.412 206L386.258 330.442L417.435 312.442L345.588 188L314.412 206ZM491.487 352.412L410.847 305.854L392.847 337.031L473.487 383.588L491.487 352.412ZM500.487 648V368H464.487V648H500.487ZM249 803.588L491.487 663.588L473.487 632.412L231 772.412L249 803.588ZM-11.4871 663.588L231 803.588L249 772.412L6.51288 632.412L-11.4871 663.588ZM-20.4871 368V648H15.5129V368H-20.4871ZM69.1532 305.854L-11.4871 352.412L6.51288 383.588L87.1532 337.031L69.1532 305.854ZM134.412 188L62.5648 312.442L93.7417 330.442L165.588 206L134.412 188Z" fill="#453613" mask="url(#path-2-outside-1_0_10)"/>
</g>
<path d="M471 240C471 367.578 367.578 471 240 471C112.422 471 9 367.578 9 240C9 112.422 112.422 9 240 9C367.578 9 471 112.422 471 240Z" stroke="#453613" stroke-width="18"/>
</g>
<defs>
<linearGradient id="paint0_linear_0_10" x1="-11.3785" y1="180.906" x2="-11.3785" y2="793.577" gradientUnits="userSpaceOnUse">
<stop stop-color="#FEDE75"/>
<stop offset="1" stop-color="#FFB017"/>
</linearGradient>
<clipPath id="clip0_0_10">
<rect width="480" height="480" fill="white"/>
</clipPath>
</defs>
</svg>
