<?xml version="1.0" encoding="UTF-8" standalone="no"?>
<!-- Created with Inkscape (http://www.inkscape.org/) -->

<svg
   width="97.00071mm"
   height="25.192444mm"
   viewBox="0 0 97.00071 25.192444"
   version="1.1"
   id="svg5"
   inkscape:version="1.1 (c68e22c387, 2021-05-23)"
   sodipodi:docname="neruthes-signature.svg"
   xmlns:inkscape="http://www.inkscape.org/namespaces/inkscape"
   xmlns:sodipodi="http://sodipodi.sourceforge.net/DTD/sodipodi-0.dtd"
   xmlns="http://www.w3.org/2000/svg"
   xmlns:svg="http://www.w3.org/2000/svg">
  <sodipodi:namedview
     id="namedview7"
     pagecolor="#ffffff"
     bordercolor="#666666"
     borderopacity="1.0"
     inkscape:pageshadow="2"
     inkscape:pageopacity="0.0"
     inkscape:pagecheckerboard="false"
     inkscape:document-units="mm"
     showgrid="false"
     inkscape:zoom="0.77771465"
     inkscape:cx="-748.98937"
     inkscape:cy="318.24012"
     inkscape:window-width="3840"
     inkscape:window-height="2077"
     inkscape:window-x="0"
     inkscape:window-y="38"
     inkscape:window-maximized="1"
     inkscape:current-layer="layer1"
     fit-margin-top="0"
     fit-margin-left="0"
     fit-margin-right="0"
     fit-margin-bottom="0" />
  <defs
     id="defs2" />
  <g
     inkscape:label="Layer 1"
     inkscape:groupmode="layer"
     id="layer1"
     transform="translate(-22.388516,-181.4681)">
    <path
       style="fill:#060505;stroke:none;stroke-width:0.0735615"
       d="m 42.385154,181.57064 c -1.516314,2.21505 -1.890049,5.53415 -2.56702,8.21281 -0.763668,3.02192 -1.995295,5.86226 -2.830067,8.85695 -0.394099,1.41406 -0.866023,2.81015 -1.344937,4.18636 -0.128633,0.36966 -0.363385,1.16276 -0.807956,1.04794 -0.359085,-0.0927 -0.565879,-0.61282 -0.710776,-0.9679 -0.390067,-0.95599 -0.715817,-2.01375 -0.879935,-3.05863 -0.666151,-4.2403 -1.677609,-8.44703 -2.218218,-12.7218 -0.157802,-1.24787 -0.361303,-2.6525 -0.86562,-3.77441 -0.238583,-0.53086 -0.648476,-1.10804 -1.211398,-0.89633 -1.300513,0.48914 -1.764776,3.25266 -2.132933,4.59022 -1.279411,4.64797 -2.590892,9.32653 -3.759116,14.01009 -0.294391,1.18023 -0.719493,2.87392 -0.663677,4.10527 0.02933,0.64696 0.419026,1.18546 0.973936,1.22234 1.574319,0.10444 1.321818,-2.35675 1.531616,-3.55622 0.320979,-1.83508 0.966874,-3.61002 1.440948,-5.39469 0.481871,-1.81406 0.808428,-3.68626 1.353943,-5.47521 0.326825,-1.07161 0.657884,-2.13597 0.955811,-3.22022 0.05565,-0.20258 0.197788,-1.00036 0.464464,-0.95551 0.250747,0.0421 0.330992,0.81251 0.383816,1.03578 0.264458,1.11727 0.383683,2.31746 0.553446,3.46202 0.570718,3.84666 1.063409,7.81989 2.162706,11.51404 0.512987,1.72364 1.45744,3.40622 3.181287,2.70314 1.697771,-0.69237 2.230047,-3.57837 2.779729,-5.36023 0.883295,-2.86288 1.889108,-5.67207 2.775293,-8.53488 0.620451,-2.0044 1.09392,-4.05656 1.774319,-6.03883 0.390336,-1.13715 0.838401,-2.27527 1.113343,-3.46223 0.110353,-0.47631 0.238247,-1.10687 -0.15733,-1.44922 -0.369367,-0.31966 -0.881951,-0.13527 -1.295674,-0.0806 m 45.297189,11.27249 c 0.0686,1.56083 -0.27084,3.33279 -0.62233,4.83106 -0.39988,1.70698 -0.71172,3.69271 -0.49128,5.4736 0.13173,1.06219 1.04573,1.56438 1.63782,0.61612 0.65997,-1.05607 0.36225,-2.28075 0.4597,-3.51315 0.18885,-2.38534 0.82261,-4.49063 2.39322,-6.05026 0.56386,-0.55968 1.49803,-1.21059 2.26217,-1.1407 0.92611,0.0848 0.79573,1.43249 0.68215,2.19886 -0.34477,2.3173 -0.81253,5.33261 -0.30915,7.64902 0.27151,1.24884 1.84952,2.59485 2.80654,1.4643 0.92342,-1.09166 -0.49531,-1.51011 -0.78967,-2.36038 -0.25674,-0.74269 -0.15525,-1.62597 -0.11694,-2.40498 0.09,-1.84676 0.24799,-3.70986 0.28831,-5.55573 0.0155,-0.71016 0.19759,-1.47701 0.0329,-2.1739 -0.4113,-1.74618 -1.95907,-1.85544 -3.19298,-1.45141 -0.52354,0.17135 -1.03162,0.54326 -1.4772,0.90575 -0.67677,0.55017 -1.17208,1.31316 -1.74871,1.9949 0.0423,-2.69822 0.97113,-5.30185 1.69965,-7.81021 0.19154,-0.65687 0.6929,-2.14071 -0.0491,-2.55046 -0.96576,-0.53297 -1.63581,0.85845 -1.82802,1.74528 -0.43348,2.00352 -0.75137,4.04287 -1.20904,6.03883 -0.1613,0.70533 -0.10485,1.45713 -0.42811,2.09346 m -8.131986,-0.32207 c -1.307772,0.002 -2.858025,0.094 -4.091936,0.65606 -0.501965,0.22858 -1.16106,1.06339 -0.680666,1.71889 0.263383,0.35951 0.791021,0.27851 1.143448,0.23535 0.987737,-0.12094 1.966867,-0.25403 2.957088,-0.35581 -0.958969,2.03034 -1.243454,5.50307 -0.237978,7.56867 1.259049,2.58631 4.16842,2.86144 5.59636,0.23503 0.22709,-0.4178 0.69699,-1.81978 -0.027,-1.98565 -0.73128,-0.16755 -1.53036,1.30447 -2.307069,1.44546 -1.879095,0.34107 -1.992269,-3.49238 -1.731642,-4.92849 0.127289,-0.70163 0.313923,-1.78895 0.751302,-2.31143 0.699486,-0.83553 3.072819,-0.7129 4.004629,-0.63343 0.58282,0.0497 1.21846,0.21692 1.72789,-0.22955 0.80782,-0.7088 0.47649,-1.72614 -0.45163,-1.85103 -1.51618,-0.20395 -3.3313,0.0973 -4.838202,0.35541 0.100678,-1.19762 0.584497,-2.36424 0.974292,-3.46226 0.19947,-0.56194 0.51978,-1.27983 0.35384,-1.90626 -0.28616,-1.08039 -1.351987,-0.24244 -1.692121,0.30975 -0.85258,1.38418 -1.035786,3.52056 -1.450585,5.13929 m -8.87126,8.13229 c 0.203098,1.38241 0.651367,2.49951 1.814642,3.02513 0.591218,0.26716 1.766593,0.28962 1.893412,-0.70518 0.112503,-0.88255 -0.654929,-1.03626 -1.114622,-1.42894 -0.458145,-0.39132 -0.775628,-1.04456 -0.895592,-1.69619 -0.447868,-2.43188 1.360257,-5.12809 2.097312,-7.2466 0.229645,-0.66 0.676366,-2.32035 -0.434622,-2.17824 -0.861657,0.11031 -1.180349,1.59344 -1.569746,2.33928 -1.246748,2.388 -2.426827,4.84121 -3.764438,7.15577 -0.449948,0.77861 -1.700459,2.7591 -2.632815,2.24637 -0.747135,-0.41088 -0.778857,-1.71737 -0.820928,-2.55813 -0.129507,-2.5872 1.309721,-5.02407 2.114317,-7.32712 0.303841,-0.86959 0.242616,-2.62326 -0.955004,-1.85207 -0.885178,0.57007 -1.273161,2.09338 -1.634127,3.14036 -1.000369,2.90169 -1.945763,5.61329 -1.064417,8.77595 0.647871,2.32487 3.348901,2.92714 4.75466,1.263 0.791355,-0.93683 1.538223,-1.89233 2.211968,-2.95339 M 115.3828,190.26589 c -0.83538,0.0598 -1.67411,0.50533 -2.43086,0.90453 -2.30316,1.21477 -3.52834,4.79008 -1.00474,6.80625 1.38379,1.10542 3.2192,0.87023 4.62717,1.89289 0.74062,0.53745 1.02961,1.58104 0.72113,2.55265 -0.7218,2.27487 -3.74004,1.70344 -5.28445,1.44489 -0.73053,-0.12222 -1.7346,-0.48157 -2.2205,0.44269 -0.76347,1.45165 1.81323,1.86744 2.48933,1.94184 1.70436,0.18745 3.95779,0.0599 5.43835,-1.07161 1.81054,-1.38401 1.89186,-4.70545 0.40794,-6.46686 -1.05447,-1.25124 -2.61568,-1.14963 -3.89731,-1.78669 -0.75203,-0.374 -1.33808,-1.19971 -1.2245,-2.228 0.29974,-2.70966 3.40334,-1.30334 4.65204,-1.10148 0.57596,0.0932 1.65328,0.0921 1.72721,-0.85067 0.15323,-1.93436 -2.86905,-2.56144 -4.00081,-2.48043 m -67.016451,0.31337 c -3.151448,-0.11997 -6.52629,3.94497 -7.220466,7.41705 -0.578917,2.89598 0.0332,5.88199 2.717764,6.73732 1.127927,0.35943 2.814541,0.27054 3.965184,0.0603 1.221613,-0.22319 2.910513,-1.05172 3.752073,-2.13702 0.283544,-0.36571 1.409119,-1.76865 0.455257,-2.01544 -0.684364,-0.17714 -1.30999,0.79721 -1.863906,1.14295 -1.370542,0.8555 -3.569875,1.66752 -5.098891,1.11525 -0.591888,-0.21385 -1.376792,-0.58681 -1.60301,-1.35326 -0.283746,-0.9613 1.643267,-1.33684 2.140662,-1.58886 1.274706,-0.64591 3.402129,-1.35277 4.20323,-2.78044 1.079404,-1.9234 1.157296,-6.49866 -1.447897,-6.59786 m 51.816351,9.18844 c 1.79442,-0.21723 4.45781,-0.89109 5.55731,-2.77625 0.99264,-1.7023 1.49064,-5.41627 -0.71911,-6.06532 -1.03363,-0.30355 -2.36567,0.43399 -3.22524,1.05865 -2.619707,1.90328 -5.384577,7.36665 -2.783017,10.72939 2.071977,2.6785 5.050567,3.84053 7.957917,2.44041 0.78699,-0.37891 2.62173,-1.32774 2.48866,-2.61336 -0.0497,-0.48134 -0.44356,-0.4571 -0.74465,-0.33399 -0.75876,0.31072 -1.42813,0.8704 -2.21445,1.09915 -2.27494,0.66193 -5.89805,-0.12392 -6.31742,-3.53868 m -43.953054,-2.09346 c -0.106119,-1.14995 0.150677,-2.31279 0.193219,-3.46226 0.02971,-0.80196 0.23119,-1.89354 -0.113848,-2.62713 -0.327632,-0.69656 -1.345004,-0.7952 -1.689035,-0.0607 -0.363385,0.7757 -0.241741,2.2086 -0.310359,3.09043 -0.184751,2.37463 -0.378574,4.72381 -0.651164,7.08556 -0.0998,0.865 -0.331732,2.42455 0.507611,2.8926 0.724822,0.40428 1.34245,-0.33101 1.515574,-1.12226 0.186834,-0.85348 0.09194,-1.75448 0.394032,-2.57552 0.326623,-0.88787 0.963338,-1.60125 1.501125,-2.30812 1.18102,-1.55222 2.37286,-2.92392 3.894953,-3.99537 0.682482,-0.48045 3.118113,-1.16493 2.50183,-2.67842 -0.403777,-0.9915 -1.92419,-0.18197 -2.50183,0.12472 -1.919351,1.01903 -4.246645,3.41145 -5.242108,5.63648 m -8.268435,-5.22074 c 1.336737,-0.0684 1.057629,2.79163 0.581538,3.6518 -0.337578,0.61001 -0.921805,0.90647 -1.453139,1.20729 -1.100843,0.62312 -2.633555,1.84571 -3.907589,1.75376 -0.677374,-0.0489 0.355657,-2.21046 0.513861,-2.51941 0.784099,-1.53096 2.6351,-4.0101 4.265329,-4.09344 m 55.917899,0.26491 c 1.52156,-0.47731 1.26953,1.61478 0.87167,2.62053 -0.54908,1.38571 -1.70167,1.89401 -2.88786,2.22116 -0.33738,0.0932 -1.31389,0.39446 -1.61027,0.12883 -0.473127,-0.42385 0.34947,-1.7949 0.5605,-2.15119 0.78027,-1.31897 1.7104,-2.39412 3.06596,-2.81933 m -14.404367,0.66153 -0.0229,0.0536 z"
       id="path1833" />
  </g>
</svg>
