<svg xmlns="http://www.w3.org/2000/svg" id="canvas" viewBox="397.762 378.667 914.444 171.077"><path d="M 405.22,398.82 C 404.42 400.84, 405.42 403.00, 406.03 408.25 C 406.64 413.50, 407.20 417.14, 408.29 425.08 C 409.38 433.02, 410.24 438.46, 411.50 447.95 C 412.77 457.43, 413.50 462.93, 414.61 472.52 C 415.73 482.12, 416.25 487.13, 417.09 495.91 C 417.93 504.69, 418.31 509.04, 418.80 516.42 C 419.29 523.80, 419.35 527.39, 419.54 532.82 C 419.74 538.24, 418.80 540.77, 419.77 543.54 C 420.74 546.32, 422.67 546.93, 424.37 546.70 C 426.08 546.47, 427.87 545.50, 428.28 542.40 C 428.69 539.30, 427.62 537.07, 426.43 531.20 C 425.23 525.33, 424.65 516.42, 422.31 513.07 C 419.97 509.72, 415.73 510.51, 414.73 514.46 C 413.73 518.42, 416.39 526.95, 417.33 532.85 C 418.26 538.75, 417.97 541.21, 419.41 543.96 C 420.85 546.70, 422.88 546.87, 424.51 546.57 C 426.13 546.26, 427.38 545.28, 427.53 542.42 C 427.68 539.56, 426.11 537.54, 425.26 532.26 C 424.40 526.98, 424.10 523.37, 423.26 516.02 C 422.41 508.67, 421.98 504.30, 421.03 495.51 C 420.08 486.73, 419.56 481.70, 418.53 472.08 C 417.49 462.47, 416.89 456.94, 415.85 447.42 C 414.82 437.90, 414.18 432.45, 413.37 424.47 C 412.56 416.50, 412.47 412.81, 411.80 407.55 C 411.13 402.29, 411.35 399.91, 410.03 398.16 C 408.72 396.42, 406.02 396.81, 405.22 398.82" style="stroke: black; fill: black;"/><path d="M 401.05,394.35 C 400.44 396.10, 400.77 397.52, 402.31 401.63 C 403.85 405.73, 405.41 408.40, 408.74 414.89 C 412.08 421.38, 414.37 425.90, 419.00 434.08 C 423.63 442.26, 426.50 447.33, 431.90 455.81 C 437.31 464.28, 440.35 468.84, 446.03 476.45 C 451.72 484.06, 454.73 487.67, 460.33 493.87 C 465.92 500.06, 468.72 502.73, 474.01 507.42 C 479.30 512.11, 481.92 514.12, 486.77 517.30 C 491.61 520.49, 493.81 521.82, 498.23 523.35 C 502.64 524.88, 504.87 525.61, 508.84 524.95 C 512.81 524.29, 515.07 523.20, 518.08 520.06 C 521.09 516.92, 521.97 514.65, 523.87 509.25 C 525.78 503.85, 526.37 500.51, 527.62 493.07 C 528.87 485.63, 529.42 480.90, 530.14 472.05 C 530.86 463.21, 531.12 458.00, 531.21 448.85 C 531.29 439.70, 531.18 434.69, 530.57 426.29 C 529.95 417.90, 529.41 413.75, 528.13 406.88 C 526.85 400.01, 526.00 396.84, 524.16 391.93 C 522.31 387.03, 520.74 383.87, 518.92 382.35 C 517.10 380.82, 514.95 382.03, 515.04 384.30 C 515.13 386.57, 517.69 388.99, 519.37 393.69 C 521.06 398.39, 522.08 401.21, 523.47 407.80 C 524.86 414.39, 525.62 418.43, 526.32 426.63 C 527.02 434.83, 527.14 439.80, 526.99 448.79 C 526.83 457.79, 526.50 462.97, 525.56 471.62 C 524.62 480.27, 523.85 484.98, 522.28 492.03 C 520.71 499.08, 519.65 502.32, 517.71 506.86 C 515.76 511.41, 514.60 512.66, 512.57 514.76 C 510.54 516.87, 510.03 516.94, 507.56 517.37 C 505.08 517.81, 503.80 517.90, 500.21 516.94 C 496.62 515.99, 494.27 515.22, 489.62 512.62 C 484.97 510.02, 482.23 508.24, 476.97 503.94 C 471.70 499.65, 468.86 497.11, 463.28 491.15 C 457.70 485.20, 454.68 481.67, 449.08 474.18 C 443.47 466.69, 440.46 462.16, 435.26 453.71 C 430.05 445.25, 427.32 440.14, 423.05 431.89 C 418.77 423.64, 416.76 419.01, 413.88 412.45 C 410.99 405.88, 410.34 402.98, 408.63 399.07 C 406.93 395.16, 406.87 393.84, 405.35 392.90 C 403.83 391.95, 401.65 392.61, 401.05 394.35" style="stroke: black; fill: black;"/><path d="M 578.52,496.30 C 580.13 497.41, 582.03 497.73, 585.20 497.03 C 588.36 496.33, 590.29 494.85, 594.35 492.79 C 598.41 490.73, 601.20 489.41, 605.51 486.73 C 609.82 484.04, 612.19 482.40, 615.91 479.36 C 619.62 476.33, 621.54 474.85, 624.09 471.55 C 626.65 468.25, 628.09 466.46, 628.67 462.86 C 629.25 459.27, 628.81 456.75, 626.99 453.57 C 625.18 450.40, 623.30 448.51, 619.59 446.99 C 615.88 445.48, 613.22 445.50, 608.44 445.99 C 603.65 446.48, 600.77 447.24, 595.65 449.44 C 590.53 451.64, 587.53 453.34, 582.82 456.99 C 578.11 460.64, 575.56 463.06, 572.09 467.68 C 568.62 472.30, 566.88 475.06, 565.47 480.08 C 564.05 485.10, 563.74 488.10, 565.00 492.79 C 566.26 497.47, 567.94 499.96, 571.77 503.51 C 575.60 507.06, 578.48 508.44, 584.14 510.55 C 589.80 512.67, 593.30 513.26, 600.08 514.09 C 606.86 514.92, 610.78 514.98, 618.05 514.71 C 625.32 514.43, 629.36 513.98, 636.43 512.71 C 643.51 511.44, 647.13 510.47, 653.41 508.38 C 659.69 506.28, 662.73 505.05, 667.84 502.23 C 672.95 499.41, 675.22 497.70, 678.97 494.29 C 682.73 490.87, 684.16 488.81, 686.61 485.15 C 689.06 481.49, 690.92 479.01, 691.23 475.98 C 691.54 472.95, 689.83 470.88, 688.16 470.01 C 686.50 469.13, 683.99 469.70, 682.91 471.62 C 681.84 473.55, 681.89 475.81, 682.79 479.63 C 683.68 483.45, 685.32 486.33, 687.37 490.73 C 689.41 495.13, 690.89 497.81, 693.02 501.63 C 695.14 505.45, 695.64 507.99, 697.99 509.84 C 700.33 511.69, 702.47 511.60, 704.73 510.87 C 706.99 510.14, 708.57 508.71, 709.30 506.20 C 710.02 503.70, 709.43 501.91, 708.35 498.35 C 707.28 494.79, 705.55 492.54, 703.92 488.42 C 702.29 484.29, 701.24 481.67, 700.19 477.72 C 699.14 473.76, 698.82 471.59, 698.67 468.66 C 698.52 465.73, 698.76 464.80, 699.45 463.07 C 700.15 461.34, 700.48 461.22, 702.14 460.01 C 703.81 458.81, 704.80 458.11, 707.79 457.05 C 710.78 455.99, 712.82 455.42, 717.09 454.70 C 721.35 453.99, 724.07 453.75, 729.11 453.49 C 734.16 453.23, 737.12 453.24, 742.31 453.40 C 747.49 453.56, 750.36 453.79, 755.05 454.29 C 759.74 454.78, 762.35 454.98, 765.75 455.87 C 769.15 456.76, 770.17 457.26, 772.04 458.73 C 773.92 460.21, 774.10 460.86, 775.11 463.25 C 776.12 465.64, 776.35 467.34, 777.10 470.70 C 777.85 474.05, 777.95 476.24, 778.85 480.03 C 779.75 483.82, 780.02 486.03, 781.60 489.64 C 783.17 493.25, 784.16 495.27, 786.73 498.08 C 789.29 500.89, 791.00 502.24, 794.43 503.68 C 797.86 505.11, 800.03 505.43, 803.88 505.27 C 807.73 505.10, 809.87 504.46, 813.69 502.87 C 817.51 501.27, 819.38 499.99, 822.98 497.28 C 826.57 494.57, 828.40 492.71, 831.65 489.31 C 834.89 485.90, 836.52 483.74, 839.19 480.26 C 841.86 476.78, 843.76 474.57, 845.01 471.91 C 846.25 469.24, 845.68 467.61, 845.41 466.94 C 845.15 466.27, 843.70 466.94, 843.69 468.56 C 843.69 470.18, 843.94 471.84, 845.40 475.04 C 846.86 478.23, 848.28 480.78, 851.00 484.53 C 853.71 488.29, 855.50 490.56, 858.96 493.80 C 862.42 497.05, 864.36 498.55, 868.31 500.76 C 872.25 502.96, 874.44 503.80, 878.69 504.84 C 882.94 505.89, 885.26 506.26, 889.56 505.96 C 893.86 505.66, 896.22 505.17, 900.18 503.36 C 904.15 501.54, 906.11 500.22, 909.37 496.89 C 912.63 493.56, 914.07 491.48, 916.48 486.71 C 918.88 481.95, 919.84 479.03, 921.40 473.07 C 922.96 467.11, 923.47 463.58, 924.29 456.91 C 925.11 450.23, 925.25 446.38, 925.51 439.69 C 925.76 433.00, 925.62 428.83, 925.55 423.45 C 925.48 418.07, 926.16 415.13, 925.16 412.80 C 924.15 410.47, 921.46 410.54, 920.52 411.80 C 919.58 413.06, 919.48 414.92, 920.47 419.11 C 921.46 423.29, 923.12 426.70, 925.49 432.74 C 927.85 438.78, 929.44 442.87, 932.30 449.30 C 935.15 455.73, 936.83 459.13, 939.77 464.89 C 942.71 470.65, 944.17 473.37, 946.98 478.10 C 949.79 482.82, 951.22 485.32, 953.82 488.51 C 956.42 491.71, 958.10 493.51, 959.98 494.08 C 961.86 494.66, 963.39 493.28, 963.22 491.39 C 963.05 489.49, 961.32 487.90, 959.12 484.60 C 956.92 481.29, 955.08 479.32, 952.21 474.86 C 949.34 470.41, 947.65 467.90, 944.78 462.33 C 941.91 456.75, 940.33 453.40, 937.86 447.00 C 935.38 440.59, 934.33 436.40, 932.41 430.30 C 930.49 424.20, 930.04 420.53, 928.26 416.49 C 926.49 412.44, 925.63 410.79, 923.54 410.06 C 921.46 409.33, 918.82 410.09, 917.83 412.83 C 916.85 415.56, 918.24 418.38, 918.60 423.73 C 918.97 429.08, 919.68 433.09, 919.67 439.57 C 919.66 446.06, 919.41 449.80, 918.54 456.16 C 917.66 462.51, 916.97 465.90, 915.30 471.34 C 913.63 476.77, 912.49 479.37, 910.20 483.34 C 907.90 487.30, 906.52 488.74, 903.83 491.17 C 901.14 493.60, 899.72 494.29, 896.75 495.51 C 893.78 496.73, 892.18 497.06, 888.96 497.28 C 885.73 497.50, 883.94 497.37, 880.63 496.62 C 877.32 495.88, 875.49 495.34, 872.39 493.56 C 869.28 491.77, 867.72 490.59, 865.13 487.71 C 862.54 484.83, 861.39 482.71, 859.43 479.15 C 857.48 475.59, 857.16 473.05, 855.36 469.91 C 853.56 466.76, 852.92 465.06, 850.42 463.42 C 847.93 461.78, 845.73 461.16, 842.90 461.73 C 840.08 462.29, 838.52 463.58, 836.30 466.25 C 834.08 468.92, 833.98 471.65, 831.81 475.08 C 829.64 478.51, 828.26 480.44, 825.44 483.40 C 822.62 486.37, 820.76 487.87, 817.71 489.93 C 814.65 491.98, 812.98 492.71, 810.15 493.68 C 807.32 494.64, 805.88 494.73, 803.55 494.76 C 801.22 494.79, 800.34 494.57, 798.50 493.83 C 796.65 493.09, 795.87 492.69, 794.33 491.05 C 792.78 489.41, 791.93 488.30, 790.77 485.64 C 789.61 482.97, 789.34 481.20, 788.52 477.74 C 787.70 474.27, 787.68 472.07, 786.67 468.33 C 785.66 464.58, 785.36 462.33, 783.46 459.00 C 781.56 455.67, 780.33 453.85, 777.16 451.67 C 773.98 449.50, 771.88 449.04, 767.59 448.11 C 763.29 447.18, 760.70 447.37, 755.69 447.01 C 750.68 446.65, 747.90 446.53, 742.55 446.33 C 737.19 446.12, 734.22 446.00, 728.92 446.01 C 723.62 446.01, 720.86 445.96, 716.06 446.36 C 711.27 446.76, 708.95 446.86, 704.94 448.00 C 700.92 449.15, 698.88 449.76, 696.00 452.09 C 693.12 454.41, 691.83 456.22, 690.54 459.62 C 689.25 463.01, 689.36 465.04, 689.54 469.08 C 689.71 473.12, 690.46 475.30, 691.40 479.79 C 692.35 484.28, 693.11 487.05, 694.26 491.53 C 695.41 496.02, 695.83 498.90, 697.14 502.23 C 698.45 505.56, 699.22 506.97, 700.80 508.17 C 702.38 509.37, 703.97 509.08, 705.05 508.21 C 706.12 507.35, 706.85 506.09, 706.18 503.83 C 705.51 501.57, 703.52 500.36, 701.70 496.92 C 699.89 493.48, 698.66 490.78, 697.11 486.63 C 695.55 482.48, 695.29 479.52, 693.93 476.15 C 692.58 472.78, 692.22 471.16, 690.33 469.80 C 688.45 468.43, 686.48 468.60, 684.51 469.32 C 682.55 470.03, 681.52 470.97, 680.51 473.37 C 679.50 475.77, 680.69 478.08, 679.45 481.33 C 678.21 484.57, 677.23 486.42, 674.32 489.59 C 671.42 492.77, 669.47 494.46, 664.94 497.21 C 660.41 499.96, 657.57 501.26, 651.68 503.35 C 645.80 505.44, 642.29 506.44, 635.53 507.65 C 628.77 508.87, 624.82 509.28, 617.89 509.43 C 610.95 509.59, 607.15 509.37, 600.86 508.42 C 594.57 507.46, 591.32 506.63, 586.43 504.65 C 581.54 502.67, 579.34 501.25, 576.40 498.52 C 573.46 495.79, 572.60 494.30, 571.73 491.00 C 570.86 487.69, 570.91 485.84, 572.06 481.99 C 573.20 478.14, 574.48 475.65, 577.46 471.75 C 580.44 467.86, 582.78 465.56, 586.98 462.53 C 591.17 459.49, 594.04 458.10, 598.44 456.58 C 602.84 455.06, 605.47 454.94, 608.96 454.95 C 612.45 454.95, 613.85 455.91, 615.90 456.61 C 617.96 457.30, 618.51 457.53, 619.22 458.42 C 619.94 459.30, 619.93 459.49, 619.49 461.05 C 619.05 462.60, 618.80 463.81, 617.03 466.20 C 615.27 468.59, 613.85 470.37, 610.67 473.00 C 607.50 475.64, 605.22 477.11, 601.16 479.37 C 597.11 481.62, 594.31 482.65, 590.41 484.27 C 586.52 485.89, 584.34 486.01, 581.68 487.45 C 579.02 488.89, 577.74 489.69, 577.11 491.46 C 576.47 493.23, 576.90 495.19, 578.52 496.30" style="stroke: black; fill: black;"/><path d="M 915.30,475.13 C 916.41 476.49, 917.40 477.34, 920.33 477.41 C 923.26 477.47, 925.18 476.44, 929.94 475.46 C 934.71 474.47, 938.03 473.94, 944.16 472.48 C 950.28 471.02, 954.03 470.21, 960.55 468.17 C 967.08 466.13, 970.71 464.92, 976.77 462.29 C 982.82 459.66, 985.84 458.16, 990.85 455.01 C 995.85 451.86, 998.16 450.20, 1001.78 446.56 C 1005.40 442.92, 1006.89 440.89, 1008.92 436.82 C 1010.95 432.74, 1011.49 430.40, 1011.93 426.19 C 1012.37 421.99, 1012.31 419.47, 1011.11 415.79 C 1009.92 412.12, 1008.71 409.83, 1005.97 407.80 C 1003.23 405.77, 1000.72 405.17, 997.40 405.65 C 994.09 406.13, 991.38 407.16, 989.39 410.19 C 987.40 413.22, 987.42 415.99, 987.45 420.81 C 987.47 425.62, 988.18 428.66, 989.52 434.28 C 990.87 439.91, 991.93 443.16, 994.17 448.95 C 996.40 454.73, 997.87 457.88, 1000.70 463.21 C 1003.52 468.54, 1005.19 471.18, 1008.27 475.60 C 1011.35 480.02, 1012.95 482.01, 1016.10 485.31 C 1019.25 488.61, 1020.69 490.14, 1024.03 492.10 C 1027.38 494.06, 1029.27 494.81, 1032.83 495.10 C 1036.40 495.39, 1038.56 495.01, 1041.86 493.55 C 1045.17 492.08, 1046.58 490.41, 1049.37 487.77 C 1052.16 485.14, 1053.43 483.16, 1055.81 480.38 C 1058.20 477.60, 1059.66 475.84, 1061.28 473.87 C 1062.91 471.90, 1062.98 470.93, 1063.93 470.54 C 1064.89 470.14, 1064.70 470.76, 1066.06 471.91 C 1067.41 473.05, 1068.40 474.10, 1070.73 476.26 C 1073.05 478.42, 1074.53 480.13, 1077.68 482.71 C 1080.82 485.28, 1082.71 486.92, 1086.46 489.14 C 1090.20 491.36, 1092.26 492.40, 1096.39 493.82 C 1100.52 495.23, 1102.68 495.70, 1107.09 496.22 C 1111.51 496.74, 1113.90 496.82, 1118.46 496.41 C 1123.01 496.00, 1125.43 495.56, 1129.89 494.16 C 1134.34 492.76, 1136.64 491.75, 1140.75 489.42 C 1144.85 487.09, 1146.99 485.61, 1150.42 482.51 C 1153.85 479.40, 1155.53 477.53, 1157.88 473.88 C 1160.23 470.23, 1161.47 468.16, 1162.17 464.25 C 1162.87 460.33, 1162.81 457.80, 1161.36 454.33 C 1159.91 450.85, 1158.24 448.78, 1154.94 446.86 C 1151.64 444.94, 1149.05 444.48, 1144.85 444.74 C 1140.65 445.00, 1138.05 445.96, 1133.95 448.15 C 1129.86 450.35, 1127.58 452.11, 1124.38 455.72 C 1121.19 459.32, 1119.45 461.70, 1117.97 466.18 C 1116.49 470.65, 1115.98 473.61, 1116.98 478.09 C 1117.98 482.57, 1119.52 485.06, 1122.98 488.59 C 1126.43 492.11, 1128.94 493.47, 1134.26 495.74 C 1139.57 498.00, 1142.91 498.76, 1149.57 499.91 C 1156.23 501.05, 1160.18 501.27, 1167.55 501.45 C 1174.91 501.63, 1178.93 501.41, 1186.38 500.79 C 1193.84 500.16, 1197.85 499.62, 1204.84 498.32 C 1211.82 497.02, 1215.23 496.13, 1221.30 494.27 C 1227.38 492.41, 1230.25 491.30, 1235.20 489.03 C 1240.16 486.76, 1242.38 485.55, 1246.10 482.91 C 1249.81 480.26, 1251.40 478.84, 1253.77 475.81 C 1256.15 472.78, 1257.06 470.98, 1257.99 467.77 C 1258.93 464.55, 1258.71 462.65, 1258.44 459.74 C 1258.17 456.83, 1257.87 455.02, 1256.63 453.21 C 1255.38 451.41, 1253.99 450.60, 1252.23 450.71 C 1250.48 450.82, 1248.71 452.06, 1247.84 453.76 C 1246.96 455.46, 1246.49 457.31, 1247.86 459.23 C 1249.22 461.14, 1251.15 461.45, 1254.66 463.33 C 1258.17 465.20, 1260.86 466.08, 1265.41 468.59 C 1269.95 471.10, 1272.76 472.76, 1277.38 475.87 C 1282.01 478.98, 1284.66 480.83, 1288.54 484.15 C 1292.41 487.48, 1294.40 489.44, 1296.76 492.49 C 1299.12 495.53, 1299.69 497.13, 1300.34 499.38 C 1301.00 501.64, 1300.87 501.99, 1300.03 503.75 C 1299.18 505.51, 1298.74 506.34, 1296.13 508.18 C 1293.51 510.03, 1291.51 511.28, 1286.97 512.99 C 1282.43 514.70, 1279.35 515.56, 1273.43 516.71 C 1267.51 517.87, 1263.82 518.29, 1257.37 518.75 C 1250.93 519.22, 1247.26 519.24, 1241.20 519.02 C 1235.14 518.80, 1231.93 518.49, 1227.06 517.64 C 1222.18 516.80, 1219.97 515.88, 1216.83 514.80 C 1213.70 513.72, 1213.06 512.75, 1211.38 512.24 C 1209.70 511.73, 1209.25 512.23, 1208.43 512.26 C 1207.60 512.29, 1207.90 512.25, 1207.27 512.39 C 1206.65 512.54, 1205.77 512.35, 1205.29 513.00 C 1204.82 513.65, 1204.48 514.29, 1204.91 515.63 C 1205.33 516.96, 1205.50 518.27, 1207.43 519.68 C 1209.37 521.09, 1210.82 521.79, 1214.58 522.68 C 1218.34 523.57, 1220.94 523.70, 1226.24 524.14 C 1231.53 524.59, 1234.75 524.80, 1241.05 524.89 C 1247.35 524.97, 1251.06 524.96, 1257.74 524.58 C 1264.43 524.21, 1268.18 523.92, 1274.50 523.01 C 1280.81 522.09, 1284.03 521.58, 1289.31 520.00 C 1294.59 518.42, 1297.15 517.66, 1300.91 515.12 C 1304.67 512.57, 1306.61 510.87, 1308.10 507.27 C 1309.59 503.66, 1309.47 500.99, 1308.36 497.09 C 1307.26 493.20, 1305.64 491.42, 1302.57 487.77 C 1299.51 484.12, 1297.23 482.40, 1293.02 478.86 C 1288.81 475.33, 1286.11 473.53, 1281.51 470.07 C 1276.92 466.62, 1274.15 464.83, 1270.05 461.60 C 1265.95 458.36, 1264.00 456.37, 1261.00 453.88 C 1258.01 451.38, 1257.29 449.76, 1255.08 449.11 C 1252.87 448.47, 1251.64 449.53, 1249.94 450.67 C 1248.24 451.81, 1247.34 453.34, 1246.59 454.83 C 1245.84 456.32, 1245.97 456.82, 1246.19 458.12 C 1246.41 459.43, 1247.32 459.86, 1247.69 461.34 C 1248.07 462.81, 1248.31 463.60, 1248.08 465.50 C 1247.84 467.40, 1247.81 468.50, 1246.52 470.85 C 1245.22 473.20, 1244.40 474.71, 1241.59 477.25 C 1238.79 479.80, 1236.88 481.19, 1232.49 483.57 C 1228.10 485.95, 1225.36 487.19, 1219.64 489.15 C 1213.92 491.11, 1210.62 492.06, 1203.89 493.39 C 1197.16 494.73, 1193.22 495.27, 1185.98 495.83 C 1178.75 496.39, 1174.80 496.53, 1167.73 496.19 C 1160.67 495.86, 1156.82 495.45, 1150.67 494.15 C 1144.52 492.84, 1141.45 491.80, 1137.00 489.65 C 1132.55 487.51, 1130.82 486.05, 1128.41 483.42 C 1126.01 480.78, 1125.45 479.35, 1124.97 476.49 C 1124.50 473.62, 1124.83 472.02, 1126.03 469.10 C 1127.23 466.17, 1128.52 464.32, 1130.97 461.86 C 1133.43 459.40, 1135.40 458.14, 1138.31 456.80 C 1141.23 455.46, 1143.19 455.35, 1145.55 455.17 C 1147.91 454.98, 1148.78 455.31, 1150.10 455.88 C 1151.43 456.44, 1151.70 456.66, 1152.17 457.99 C 1152.65 459.33, 1152.86 460.30, 1152.48 462.55 C 1152.10 464.81, 1151.81 466.48, 1150.26 469.26 C 1148.72 472.04, 1147.44 473.81, 1144.74 476.45 C 1142.04 479.09, 1140.20 480.45, 1136.75 482.45 C 1133.30 484.45, 1131.30 485.30, 1127.50 486.45 C 1123.71 487.61, 1121.64 487.93, 1117.77 488.23 C 1113.89 488.52, 1111.82 488.43, 1108.13 487.93 C 1104.44 487.44, 1102.66 487.04, 1099.31 485.75 C 1095.95 484.46, 1094.35 483.59, 1091.36 481.49 C 1088.37 479.40, 1087.01 477.91, 1084.36 475.27 C 1081.71 472.64, 1080.80 470.82, 1078.12 468.32 C 1075.44 465.82, 1074.20 464.10, 1070.96 462.77 C 1067.72 461.45, 1065.41 461.11, 1061.94 461.71 C 1058.47 462.32, 1056.50 463.48, 1053.61 465.82 C 1050.71 468.15, 1049.83 470.54, 1047.48 473.40 C 1045.14 476.26, 1043.98 477.98, 1041.89 480.11 C 1039.80 482.24, 1038.79 482.95, 1037.05 484.04 C 1035.32 485.12, 1035.00 485.47, 1033.22 485.54 C 1031.45 485.61, 1030.56 485.51, 1028.16 484.39 C 1025.77 483.27, 1024.17 482.48, 1021.26 479.95 C 1018.34 477.41, 1016.59 475.65, 1013.58 471.72 C 1010.58 467.79, 1008.87 465.29, 1006.22 460.28 C 1003.57 455.28, 1002.18 452.20, 1000.33 446.72 C 998.49 441.23, 997.72 437.97, 997.00 432.85 C 996.29 427.73, 996.43 424.74, 996.75 421.13 C 997.08 417.52, 998.29 416.40, 998.61 414.81 C 998.93 413.21, 998.31 413.12, 998.36 413.17 C 998.42 413.21, 998.32 413.82, 998.90 415.04 C 999.48 416.26, 1000.41 417.09, 1001.27 419.26 C 1002.14 421.42, 1003.05 422.96, 1003.22 425.86 C 1003.38 428.76, 1003.34 430.52, 1002.10 433.77 C 1000.86 437.01, 999.92 438.82, 997.03 442.08 C 994.14 445.34, 992.15 447.06, 987.65 450.07 C 983.15 453.08, 980.27 454.64, 974.53 457.13 C 968.78 459.62, 965.24 460.80, 958.90 462.52 C 952.57 464.23, 948.87 464.82, 942.85 465.71 C 936.83 466.60, 933.53 466.67, 928.79 466.97 C 924.06 467.27, 921.96 466.49, 919.16 467.22 C 916.35 467.94, 915.54 469.02, 914.77 470.61 C 913.99 472.19, 914.18 473.77, 915.30 475.13" style="stroke: black; fill: black;"/></svg>