<svg width="560" height="560" viewBox="0 0 560 560" fill="none" xmlns="http://www.w3.org/2000/svg">
<rect width="560" height="560" fill="white"/>
<mask id="mask0_0_62" style="mask-type:alpha" maskUnits="userSpaceOnUse" x="45" y="45" width="470" height="470">
<path d="M507 280C507 405.369 405.369 507 280 507C154.631 507 53 405.369 53 280C53 154.631 154.631 53 280 53C405.369 53 507 154.631 507 280Z" fill="white"/>
<path d="M507 280C507 405.369 405.369 507 280 507C154.631 507 53 405.369 53 280C53 154.631 154.631 53 280 53C405.369 53 507 154.631 507 280Z" stroke="white" stroke-width="16"/>
</mask>
<g mask="url(#mask0_0_62)">
<mask id="path-2-outside-1_0_62" maskUnits="userSpaceOnUse" x="19.5129" y="219" width="521" height="627" fill="black">
<rect fill="white" x="19.5129" y="219" width="521" height="627"/>
<path fill-rule="evenodd" clip-rule="evenodd" d="M190 237L225.923 299.221L280 268L334.077 299.221L370 237L441.847 361.442L522.487 408V688L280 828L37.5129 688V408L118.153 361.442L190 237Z"/>
</mask>
<path fill-rule="evenodd" clip-rule="evenodd" d="M190 237L225.923 299.221L280 268L334.077 299.221L370 237L441.847 361.442L522.487 408V688L280 828L37.5129 688V408L118.153 361.442L190 237Z" fill="url(#paint0_linear_0_62)"/>
<path d="M225.923 299.221L210.335 308.221C212.722 312.355 216.653 315.372 221.265 316.608C225.876 317.843 230.789 317.197 234.923 314.81L225.923 299.221ZM190 237L205.589 228C202.373 222.431 196.431 219 190 219C183.569 219 177.627 222.431 174.412 228L190 237ZM280 268L289 252.412C283.431 249.196 276.569 249.196 271 252.412L280 268ZM334.077 299.221L325.077 314.81C333.686 319.78 344.695 316.83 349.665 308.221L334.077 299.221ZM370 237L385.589 228C382.373 222.431 376.431 219 370 219C363.569 219 357.627 222.431 354.412 228L370 237ZM441.847 361.442L426.258 370.442C427.838 373.179 430.11 375.451 432.847 377.031L441.847 361.442ZM522.487 408H540.487C540.487 401.569 537.056 395.627 531.487 392.412L522.487 408ZM522.487 688L531.487 703.588C537.056 700.373 540.487 694.431 540.487 688H522.487ZM280 828L271 843.588C276.569 846.804 283.431 846.804 289 843.588L280 828ZM37.5129 688H19.5129C19.5129 694.431 22.9437 700.373 28.5129 703.588L37.5129 688ZM37.5129 408L28.5129 392.412C22.9437 395.627 19.5129 401.569 19.5129 408H37.5129ZM118.153 361.442L127.153 377.031C129.89 375.451 132.162 373.179 133.742 370.442L118.153 361.442ZM241.512 290.221L205.589 228L174.412 246L210.335 308.221L241.512 290.221ZM271 252.412L216.923 283.633L234.923 314.81L289 283.588L271 252.412ZM343.077 283.633L289 252.412L271 283.588L325.077 314.81L343.077 283.633ZM349.665 308.221L385.589 246L354.412 228L318.488 290.221L349.665 308.221ZM354.412 246L426.258 370.442L457.435 352.442L385.589 228L354.412 246ZM531.487 392.412L450.847 345.854L432.847 377.031L513.487 423.588L531.487 392.412ZM540.487 688V408H504.487V688H540.487ZM289 843.588L531.487 703.588L513.487 672.412L271 812.412L289 843.588ZM28.5129 703.588L271 843.588L289 812.412L46.5129 672.412L28.5129 703.588ZM19.5129 408V688H55.5129V408H19.5129ZM109.153 345.854L28.5129 392.412L46.5129 423.588L127.153 377.031L109.153 345.854ZM174.412 228L102.565 352.442L133.742 370.442L205.589 246L174.412 228Z" fill="#453613" mask="url(#path-2-outside-1_0_62)"/>
</g>
<path fill-rule="evenodd" clip-rule="evenodd" d="M280 515C409.787 515 515 409.787 515 280C515 150.213 409.787 45 280 45C150.213 45 45 150.213 45 280C45 409.787 150.213 515 280 515Z" stroke="#453613" stroke-width="18"/>
<defs>
<linearGradient id="paint0_linear_0_62" x1="28.6216" y1="220.906" x2="28.6216" y2="833.577" gradientUnits="userSpaceOnUse">
<stop stop-color="#FEDE75"/>
<stop offset="1" stop-color="#FFB017"/>
</linearGradient>
</defs>
</svg>
