<svg width="1000" height="1100" viewBox="0 0 1000 1100" fill="none" xmlns="http://www.w3.org/2000/svg">
<!-- rect width="1000" height="1100" fill="#DDDDDD"/ -->
<path opacity="0.01" fill-rule="evenodd" clip-rule="evenodd" d="M0 0H1000V1000H0V0Z" fill="white"/>
<g opacity="0.01" filter="url(#filter0_df_0_258)">
<path fill-rule="evenodd" clip-rule="evenodd" d="M270.5 280.5L195.5 320.5L168.996 675.996L336.589 779.946L353 1000H666.996L617.564 798.347L826.996 681.996V314.996L784.996 292.996L674.996 113.996L617.996 203.996L512.996 147.996L421.996 197.996L376.996 119.996L270.5 280.5Z" fill="black" fill-opacity="0.01"/>
</g>
<g opacity="0.01" filter="url(#filter1_df_0_258)">
<path fill-rule="evenodd" clip-rule="evenodd" d="M270.5 280.5L195.5 320.5L168.996 675.996L336.589 779.946L353 1000H666.996L617.564 798.347L826.996 681.996V314.996L784.996 292.996L674.996 113.996L617.996 203.996L512.996 147.996L421.996 197.996L376.996 119.996L270.5 280.5Z" fill="black" fill-opacity="0.01"/>
</g>
<mask id="path-4-outside-1_0_258" maskUnits="userSpaceOnUse" x="115.996" y="61.9961" width="763" height="991" fill="black">
<rect fill="white" x="115.996" y="61.9961" width="763" height="991"/>
<path fill-rule="evenodd" clip-rule="evenodd" d="M270.5 280.5L195.5 320.5L168.996 675.996L336.589 779.946L353 1000H666.996L617.564 798.347L826.996 681.996V314.996L784.996 292.996L674.996 113.996L617.996 203.996L512.996 147.996L421.996 197.996L376.996 119.996L270.5 280.5Z"/>
</mask>
<path fill-rule="evenodd" clip-rule="evenodd" d="M270.5 280.5L195.5 320.5L168.996 675.996L336.589 779.946L353 1000H666.996L617.564 798.347L826.996 681.996V314.996L784.996 292.996L674.996 113.996L617.996 203.996L512.996 147.996L421.996 197.996L376.996 119.996L270.5 280.5Z" fill="url(#paint0_linear_0_258)"/>
<path d="M195.5 320.5L171.029 274.618C155.304 283.005 144.969 298.861 143.644 316.634L195.5 320.5ZM270.5 280.5L294.971 326.382C302.58 322.324 309.061 316.436 313.83 309.25L270.5 280.5ZM168.996 675.996L117.14 672.13C115.699 691.452 125.121 709.973 141.587 720.186L168.996 675.996ZM336.589 779.946L388.445 776.079C387.209 759.503 378.123 744.518 363.998 735.756L336.589 779.946ZM353 1000L301.144 1003.87C303.168 1031.01 325.781 1052 353 1052V1000ZM666.996 1000V1052C682.967 1052 698.052 1044.66 707.909 1032.1C717.767 1019.53 721.303 1003.13 717.501 987.62L666.996 1000ZM617.564 798.347L592.31 752.891C571.819 764.275 561.478 787.961 567.059 810.728L617.564 798.347ZM826.996 681.996L852.25 727.452C868.758 718.281 878.996 700.881 878.996 681.996H826.996ZM826.996 314.996H878.996C878.996 295.653 868.259 277.908 851.124 268.933L826.996 314.996ZM784.996 292.996L740.693 320.222C745.598 328.204 752.569 334.712 760.868 339.059L784.996 292.996ZM674.996 113.996L719.299 86.7707C709.905 71.4828 693.292 62.1187 675.348 61.9973C657.405 61.8758 640.666 71.0141 631.065 86.1734L674.996 113.996ZM617.996 203.996L593.526 249.878C617.539 262.686 647.365 254.811 661.927 231.819L617.996 203.996ZM512.996 147.996L537.467 102.114C521.97 93.8488 503.348 93.9648 487.956 102.422L512.996 147.996ZM421.996 197.996L376.954 223.982C391.095 248.491 422.237 257.196 447.037 243.57L421.996 197.996ZM376.996 119.996L422.038 94.0105C413.041 78.4157 396.617 68.5844 378.622 68.0215C360.627 67.4586 343.621 76.2443 333.666 91.2464L376.996 119.996ZM219.971 366.382L294.971 326.382L246.029 234.618L171.029 274.618L219.971 366.382ZM220.852 679.862L247.356 324.366L143.644 316.634L117.14 672.13L220.852 679.862ZM363.998 735.756L196.405 631.806L141.587 720.186L309.18 824.136L363.998 735.756ZM284.733 783.813L301.144 1003.87L404.856 996.133L388.445 776.079L284.733 783.813ZM353 1052H666.996V948H353V1052ZM717.501 987.62L668.068 785.967L567.059 810.728L616.491 1012.38L717.501 987.62ZM801.743 636.54L592.31 752.891L642.817 843.804L852.25 727.452L801.743 636.54ZM774.996 314.996V681.996H878.996V314.996H774.996ZM760.868 339.059L802.868 361.059L851.124 268.933L809.124 246.933L760.868 339.059ZM630.693 141.222L740.693 320.222L829.299 265.771L719.299 86.7707L630.693 141.222ZM661.927 231.819L718.927 141.819L631.065 86.1734L574.065 176.173L661.927 231.819ZM488.526 193.878L593.526 249.878L642.467 158.114L537.467 102.114L488.526 193.878ZM447.037 243.57L538.037 193.57L487.956 102.422L396.956 152.422L447.037 243.57ZM331.954 145.982L376.954 223.982L467.038 172.011L422.038 94.0105L331.954 145.982ZM313.83 309.25L420.326 148.746L333.666 91.2464L227.17 251.75L313.83 309.25Z" fill="white" mask="url(#path-4-outside-1_0_258)"/>
<path d="M332.585 693.61C329.142 693.131 325.667 694.234 323.132 696.613C320.597 698.991 319.273 702.389 319.532 705.855L341.532 1000.86C341.98 1006.86 346.981 1011.5 353 1011.5H666.996C670.528 1011.5 673.864 1009.88 676.044 1007.1C678.224 1004.32 679.006 1000.69 678.165 997.262L615.165 740.262C614.044 735.687 610.247 732.259 605.582 731.61L332.585 693.61Z" fill="url(#paint1_linear_0_258)" stroke="#453613" stroke-width="23" stroke-linecap="square" stroke-linejoin="round"/>
<path d="M190.088 310.353C186.61 312.208 184.325 315.714 184.032 319.645L157.528 675.141C157.209 679.414 159.293 683.51 162.935 685.769L478.935 881.769C482.479 883.967 486.935 884.074 490.581 882.049L832.581 692.049C836.232 690.021 838.496 686.172 838.496 681.996V314.996C838.496 310.718 836.122 306.794 832.332 304.809L793.137 284.278L684.794 107.975C682.716 104.594 679.042 102.523 675.074 102.496C671.106 102.469 667.404 104.49 665.281 107.843L613.991 188.827L518.408 137.849C514.981 136.021 510.862 136.047 507.458 137.917L426.329 182.494L386.957 114.249C384.967 110.8 381.335 108.626 377.356 108.502C373.376 108.377 369.615 110.32 367.414 113.638L262.524 271.72L190.088 310.353Z" fill="url(#paint2_linear_0_258)" stroke="#453613" stroke-width="23" stroke-linecap="square" stroke-linejoin="round"/>
<path d="M484.999 451.5C484.999 451.5 410.711 544.473 365.958 616.996C356.748 631.92 344.855 653.14 352.958 660.5C368.917 674.996 381.999 676.5 406.499 664.5C411.62 661.992 422.724 655.267 429.192 653.07C451.032 645.649 482.501 641.498 482.501 641.498" stroke="#453613" stroke-width="22" stroke-linecap="round" stroke-linejoin="round"/>
<path d="M427.5 801.5L599.5 693.5" stroke="#453613" stroke-width="22" stroke-linecap="round" stroke-linejoin="round"/>
<path d="M472.5 406.5L500.5 397.5L524 412" stroke="#453613" stroke-width="22" stroke-linecap="round" stroke-linejoin="round"/>
<path d="M174.5 379.5L273.5 352.5L474.993 355.851L558.995 355.58L725 351L848 374" stroke="#453613" stroke-width="22" stroke-linecap="round" stroke-linejoin="round"/>
<path fill-rule="evenodd" clip-rule="evenodd" d="M545.997 500C517.997 472 520.86 440.174 528.997 409C537.134 377.826 558.996 355.58 558.996 355.58L725.001 351C725.001 351 745.005 444 700.001 486C654.997 528 573.997 528 545.997 500Z" fill="#453613" fill-opacity="0.5"/>
<path fill-rule="evenodd" clip-rule="evenodd" d="M272.5 477.5C227.996 426.164 273.5 352.5 273.5 352.5L474.993 355.851C474.993 355.851 469.996 440 433.996 477.5C397.996 515 317.004 528.836 272.5 477.5Z" fill="#453613" fill-opacity="0.5"/>
<path fill-rule="evenodd" clip-rule="evenodd" d="M545.997 500C517.997 472 520.86 440.174 528.997 409C537.134 377.826 558.996 355.58 558.996 355.58L725.001 351C725.001 351 745.005 444 700.001 486C654.997 528 573.997 528 545.997 500Z" stroke="#453613" stroke-width="22" stroke-linecap="round" stroke-linejoin="round"/>
<path fill-rule="evenodd" clip-rule="evenodd" d="M272.5 477.5C227.996 426.164 273.5 352.5 273.5 352.5L474.993 355.851C474.993 355.851 469.996 440 433.996 477.5C397.996 515 317.004 528.836 272.5 477.5Z" stroke="#453613" stroke-width="22" stroke-linecap="round" stroke-linejoin="round"/>
<defs>
<filter id="filter0_df_0_258" x="87.4476" y="32.4476" width="821.097" height="1049.1" filterUnits="userSpaceOnUse" color-interpolation-filters="sRGB">
<feFlood flood-opacity="0" result="BackgroundImageFix"/>
<feColorMatrix in="SourceAlpha" type="matrix" values="0 0 0 0 0 0 0 0 0 0 0 0 0 0 0 0 0 0 127 0" result="hardAlpha"/>
<feOffset/>
<feColorMatrix type="matrix" values="0 0 0 0 0 0 0 0 0 0 0 0 0 0 0 0 0 0 1 0"/>
<feBlend mode="normal" in2="BackgroundImageFix" result="effect1_dropShadow_0_258"/>
<feBlend mode="normal" in="SourceGraphic" in2="effect1_dropShadow_0_258" result="shape"/>
<feGaussianBlur stdDeviation="40.7742" result="effect2_foregroundBlur_0_258"/>
</filter>
<filter id="filter1_df_0_258" x="87.4476" y="32.4476" width="821.097" height="1049.1" filterUnits="userSpaceOnUse" color-interpolation-filters="sRGB">
<feFlood flood-opacity="0" result="BackgroundImageFix"/>
<feColorMatrix in="SourceAlpha" type="matrix" values="0 0 0 0 0 0 0 0 0 0 0 0 0 0 0 0 0 0 127 0" result="hardAlpha"/>
<feOffset/>
<feColorMatrix type="matrix" values="0 0 0 0 0 0 0 0 0 0 0 0 0 0 0 0 0 0 1 0"/>
<feBlend mode="normal" in2="BackgroundImageFix" result="effect1_dropShadow_0_258"/>
<feBlend mode="normal" in="SourceGraphic" in2="effect1_dropShadow_0_258" result="shape"/>
<feGaussianBlur stdDeviation="40.7742" result="effect2_foregroundBlur_0_258"/>
</filter>
<linearGradient id="paint0_linear_0_258" x1="81.1961" y1="128.072" x2="214.86" y2="1041.43" gradientUnits="userSpaceOnUse">
<stop stop-color="#FEDE75"/>
<stop offset="1" stop-color="#FFB017"/>
</linearGradient>
<linearGradient id="paint1_linear_0_258" x1="286.166" y1="709.687" x2="315.539" y2="1017.51" gradientUnits="userSpaceOnUse">
<stop stop-color="#FEDE75"/>
<stop offset="1" stop-color="#FFB017"/>
</linearGradient>
<linearGradient id="paint2_linear_0_258" x1="-20.9451" y1="272.528" x2="360.09" y2="1005.98" gradientUnits="userSpaceOnUse">
<stop stop-color="#FEDE75"/>
<stop offset="1" stop-color="#FFB017"/>
</linearGradient>
</defs>
</svg>
