<svg width="1000" height="1100" viewBox="0 0 1000 1100" fill="none" xmlns="http://www.w3.org/2000/svg">
<!-- rect width="1000" height="1100" fill="#DDDDDD"/ -->
<path opacity="0.01" fill-rule="evenodd" clip-rule="evenodd" d="M0 0H1000V1000H0V0Z" fill="white"/>
<g opacity="0.01" filter="url(#filter0_df_0_275)">
<path fill-rule="evenodd" clip-rule="evenodd" d="M270.5 280.5L195.5 320.5L168.996 675.996L336.589 779.946L353 1000H666.996L617.564 798.347L826.996 681.996V314.996L784.996 292.996L674.996 113.996L617.996 203.996L512.996 147.996L421.996 197.996L376.996 119.996L270.5 280.5Z" fill="black" fill-opacity="0.01"/>
</g>
<g opacity="0.01" filter="url(#filter1_df_0_275)">
<path fill-rule="evenodd" clip-rule="evenodd" d="M270.5 280.5L195.5 320.5L168.996 675.996L336.589 779.946L353 1000H666.996L617.564 798.347L826.996 681.996V314.996L784.996 292.996L674.996 113.996L617.996 203.996L512.996 147.996L421.996 197.996L376.996 119.996L270.5 280.5Z" fill="black" fill-opacity="0.01"/>
</g>
<mask id="path-4-outside-1_0_275" maskUnits="userSpaceOnUse" x="115.996" y="61.9961" width="763" height="991" fill="black">
<rect fill="white" x="115.996" y="61.9961" width="763" height="991"/>
<path fill-rule="evenodd" clip-rule="evenodd" d="M270.5 280.5L195.5 320.5L168.996 675.996L336.589 779.946L353 1000H666.996L617.564 798.347L826.996 681.996V314.996L784.996 292.996L674.996 113.996L617.996 203.996L512.996 147.996L421.996 197.996L376.996 119.996L270.5 280.5Z"/>
</mask>
<path fill-rule="evenodd" clip-rule="evenodd" d="M270.5 280.5L195.5 320.5L168.996 675.996L336.589 779.946L353 1000H666.996L617.564 798.347L826.996 681.996V314.996L784.996 292.996L674.996 113.996L617.996 203.996L512.996 147.996L421.996 197.996L376.996 119.996L270.5 280.5Z" fill="url(#paint0_linear_0_275)"/>
<path d="M195.5 320.5L171.029 274.618C155.304 283.005 144.969 298.861 143.644 316.634L195.5 320.5ZM270.5 280.5L294.971 326.382C302.58 322.324 309.061 316.436 313.83 309.25L270.5 280.5ZM168.996 675.996L117.14 672.13C115.699 691.452 125.121 709.973 141.587 720.186L168.996 675.996ZM336.589 779.946L388.445 776.079C387.209 759.503 378.123 744.518 363.998 735.756L336.589 779.946ZM353 1000L301.144 1003.87C303.168 1031.01 325.781 1052 353 1052V1000ZM666.996 1000V1052C682.967 1052 698.052 1044.66 707.909 1032.1C717.767 1019.53 721.303 1003.13 717.501 987.62L666.996 1000ZM617.564 798.347L592.31 752.891C571.819 764.275 561.478 787.961 567.059 810.728L617.564 798.347ZM826.996 681.996L852.25 727.452C868.758 718.281 878.996 700.881 878.996 681.996H826.996ZM826.996 314.996H878.996C878.996 295.653 868.259 277.908 851.124 268.933L826.996 314.996ZM784.996 292.996L740.693 320.222C745.598 328.204 752.569 334.712 760.868 339.059L784.996 292.996ZM674.996 113.996L719.299 86.7707C709.905 71.4828 693.292 62.1187 675.348 61.9973C657.405 61.8758 640.666 71.0141 631.065 86.1734L674.996 113.996ZM617.996 203.996L593.526 249.878C617.539 262.686 647.365 254.811 661.927 231.819L617.996 203.996ZM512.996 147.996L537.467 102.114C521.97 93.8488 503.348 93.9648 487.956 102.422L512.996 147.996ZM421.996 197.996L376.954 223.982C391.095 248.491 422.237 257.196 447.037 243.57L421.996 197.996ZM376.996 119.996L422.038 94.0105C413.041 78.4157 396.617 68.5844 378.622 68.0215C360.627 67.4586 343.621 76.2443 333.666 91.2464L376.996 119.996ZM219.971 366.382L294.971 326.382L246.029 234.618L171.029 274.618L219.971 366.382ZM220.852 679.862L247.356 324.366L143.644 316.634L117.14 672.13L220.852 679.862ZM363.998 735.756L196.405 631.806L141.587 720.186L309.18 824.136L363.998 735.756ZM284.733 783.813L301.144 1003.87L404.856 996.133L388.445 776.079L284.733 783.813ZM353 1052H666.996V948H353V1052ZM717.501 987.62L668.068 785.967L567.059 810.728L616.491 1012.38L717.501 987.62ZM801.743 636.54L592.31 752.891L642.817 843.804L852.25 727.452L801.743 636.54ZM774.996 314.996V681.996H878.996V314.996H774.996ZM760.868 339.059L802.868 361.059L851.124 268.933L809.124 246.933L760.868 339.059ZM630.693 141.222L740.693 320.222L829.299 265.771L719.299 86.7707L630.693 141.222ZM661.927 231.819L718.927 141.819L631.065 86.1734L574.065 176.173L661.927 231.819ZM488.526 193.878L593.526 249.878L642.467 158.114L537.467 102.114L488.526 193.878ZM447.037 243.57L538.037 193.57L487.956 102.422L396.956 152.422L447.037 243.57ZM331.954 145.982L376.954 223.982L467.038 172.011L422.038 94.0105L331.954 145.982ZM313.83 309.25L420.326 148.746L333.666 91.2464L227.17 251.75L313.83 309.25Z" fill="white" mask="url(#path-4-outside-1_0_275)"/>
<path d="M332.585 693.61C329.142 693.131 325.667 694.234 323.132 696.613C320.597 698.991 319.273 702.389 319.532 705.855L341.532 1000.86C341.98 1006.86 346.981 1011.5 353 1011.5H666.996C670.528 1011.5 673.864 1009.88 676.044 1007.1C678.224 1004.32 679.006 1000.69 678.165 997.262L615.165 740.262C614.044 735.687 610.247 732.259 605.582 731.61L332.585 693.61Z" fill="url(#paint1_linear_0_275)" stroke="#453613" stroke-width="23" stroke-linecap="square" stroke-linejoin="round"/>
<path d="M190.088 310.353C186.61 312.208 184.325 315.714 184.032 319.645L157.528 675.141C157.209 679.414 159.293 683.51 162.935 685.769L478.935 881.769C482.479 883.967 486.935 884.074 490.581 882.049L832.581 692.049C836.232 690.021 838.496 686.172 838.496 681.996V314.996C838.496 310.718 836.122 306.794 832.332 304.809L793.137 284.278L684.794 107.975C682.716 104.594 679.042 102.523 675.074 102.496C671.106 102.469 667.404 104.49 665.281 107.843L613.991 188.827L518.408 137.849C514.981 136.021 510.862 136.047 507.458 137.917L426.329 182.494L386.957 114.249C384.967 110.8 381.335 108.626 377.356 108.502C373.376 108.377 369.615 110.32 367.414 113.638L262.524 271.72L190.088 310.353Z" fill="url(#paint2_linear_0_275)" stroke="#453613" stroke-width="23" stroke-linecap="square" stroke-linejoin="round"/>
<path d="M484.999 451.5C484.999 451.5 410.711 544.473 365.958 616.996C356.748 631.92 344.855 653.14 352.958 660.5C368.917 674.996 381.999 676.5 406.499 664.5C411.62 661.992 422.724 655.267 429.192 653.07C451.032 645.649 482.501 641.498 482.501 641.498" stroke="#453613" stroke-width="22" stroke-linecap="round" stroke-linejoin="round"/>
<path d="M468.5 749.5L470.5 817.5" stroke="#453613" stroke-width="22" stroke-linecap="round" stroke-linejoin="round"/>
<path d="M286.5 356.5L388.5 474.5" stroke="#453613" stroke-width="22" stroke-linecap="round" stroke-linejoin="round"/>
<path d="M260.5 450.5L388.5 392.5" stroke="#453613" stroke-width="22" stroke-linecap="round" stroke-linejoin="round"/>
<path d="M576.5 470.5L696.5 394.5" stroke="#453613" stroke-width="22" stroke-linecap="round" stroke-linejoin="round"/>
<path d="M572.5 380.5L692.5 476.5" stroke="#453613" stroke-width="22" stroke-linecap="round" stroke-linejoin="round"/>
<path d="M640.407 280.805C621.079 273.073 663.836 263.69 665.407 261.805C668.189 258.466 666.191 252.768 664.407 248.805C657.683 233.861 655.976 248.374 646.407 238.805C643.979 236.377 647.229 228.378 649.407 226.805C654.001 223.487 659.107 220.81 664.407 218.805C698.199 206.019 697.625 211.258 725.407 228.805C731.21 232.47 736.877 236.692 743.407 238.805C748.491 240.45 754.125 240.617 759.407 239.805C763.09 239.238 766.306 236.872 769.407 234.805C796.952 216.442 830.547 200.51 834.407 164.805C835.234 157.157 835.387 140.274 830.407 132.805C820.499 117.943 772.407 103.288 772.407 127.805C772.407 135.479 770.102 143.879 773.407 150.805C777.571 159.529 785.93 165.678 793.407 171.805C806.189 182.279 876.522 212.334 848.407 245.805C843.253 251.941 837.543 257.65 831.407 262.805C826.975 266.528 812.062 270.534 808.407 270.805C792.584 271.977 783.936 259.334 773.407 248.805C749.79 225.187 737.407 196.894 737.407 163.805C737.407 143.152 752.447 146.05 767.407 121.805C773.394 112.102 767.286 105.388 759.407 104.805C752.759 104.312 746.069 104.558 739.407 104.805C737.052 104.892 734.66 105.112 732.407 105.805C721.519 109.155 715.239 121.224 711.407 130.805C700.9 157.072 693.895 201.11 712.407 224.805C718.083 232.07 724.747 238.527 730.407 245.805C731.78 247.57 733.198 249.578 733.407 251.805C734.216 260.434 734.521 269.21 733.407 277.805C732.17 287.345 727.667 296.267 726.407 305.805C725.316 314.066 723.772 322.899 726.407 330.805C727.379 333.72 732.334 332.805 735.407 332.805C758.421 332.805 783.249 332.312 801.407 315.805C822.035 297.052 821.142 252.659 821.407 228.805C821.592 212.136 822.22 195.376 820.407 178.805C815.077 130.077 741.573 129.33 709.407 131.805C688.188 133.437 696.403 193.761 696.407 193.805C698.239 214.256 697.843 226.818 693.407 222.805C673.032 204.37 660.607 152.418 661.407 126.805C661.486 124.267 662.434 121.402 664.407 119.805C669.742 115.486 675.927 112.068 682.407 109.805C715.773 98.1529 772.268 83.4386 802.407 111.805C806.38 115.544 813.587 124.067 814.407 129.805C816.248 142.691 817.677 155.85 816.407 168.805C814.247 190.839 768.114 214.695 762.407 241.805C761.853 244.434 761.55 247.862 763.407 249.805C812.594 301.279 809.491 291.7 873.407 268.805C878.601 266.944 883.97 265.084 888.407 261.805C891.84 259.267 894.688 255.712 896.407 251.805C898.461 247.137 899.044 241.891 899.407 236.805C900.048 227.828 901.402 218.581 899.407 209.805C897.95 203.394 893.228 198.154 889.407 192.805C874.876 172.461 858.962 153.131 844.407 132.805C820.735 99.7458 830.667 106.533 787.407 85.8047C774.063 79.4109 747.24 70.1039 735.407 83.8047C712.548 110.274 741.782 166.09 725.407 184.805C724.225 186.156 722.176 186.5 720.407 186.805C712.462 188.175 704.449 189.23 696.407 189.805C690.422 190.232 684.307 190.897 678.407 189.805C653.113 185.121 649.799 123.248 653.407 102.805C655.31 92.0234 695.528 74.2971 703.407 73.8047C736.173 71.7568 767.081 83.1641 798.407 90.8047C806.663 92.8184 815.284 93.3054 823.407 95.8047C834.054 99.0806 863.365 119.642 866.407 121.805C872.007 125.787 880.07 128.343 882.407 134.805C888.965 152.936 877.037 215.88 873.407 224.805C871.609 229.226 864.171 227.524 859.407 227.805C858.207 227.875 856.919 226.892 856.407 225.805C854.163 221.036 852.382 215.984 851.407 210.805C845.715 180.563 833.559 135.228 855.341 107.039C859.386 101.804 864.437 97.3811 868.341 92.0391C870.805 88.6669 873.489 85.1279 874.341 81.0391C875.227 76.7843 875.603 71.7498 873.341 68.0391C866.941 57.5436 857.833 48.9266 849.341 40.0391C843.469 33.8948 837.688 27.3105 830.341 23.0391C792.649 1.12543 787.4 17.8473 785.341 52.0391C783.68 79.6137 770.682 136.483 814.341 144.039C826.861 146.206 839.647 146.487 852.341 147.039C858.83 147.321 865.16 144.822 870.341 141.039C888.38 127.868 906.115 114.257 923.341 100.039C927.162 96.8847 930.744 93.2593 933.341 89.0391C938.81 80.152 938.761 55.0994 947.341 61.0391C960.369 70.059 956.42 91.464 959.341 107.039C965.866 141.842 973.765 177.615 946.341 205.039C932.959 218.421 930.976 221.548 912.341 223.039C901.708 223.89 890.909 224.481 880.341 223.039C871.532 221.837 862.768 219.235 854.848 215.195C813.74 194.229 763.188 182.854 756.848 133.195C751.444 90.8635 758.132 92.7325 794.848 65.1953C798.553 62.4168 802.455 59.6597 806.848 58.1953C813.93 55.8348 845.204 47.7123 853.848 54.1953C889.745 81.1177 908.675 124.392 907.848 168.195C907.552 183.918 909.506 199.122 897.848 211.195C873.924 235.974 855.738 232.781 820.848 231.195C748.215 227.894 696.029 188.171 690.848 112.195C687.966 69.9249 718.524 65.1583 755.848 44.1953C797.778 20.6461 858.749 28.8847 899.848 50.1953C901.941 51.2803 903.434 53.3097 904.848 55.1953C909.453 61.3344 914.265 67.4095 917.848 74.1953C929.962 97.1334 941.658 120.341 951.848 144.195C956.364 154.765 967.543 167.211 961.848 177.195C939.708 216.013 906.597 247.746 874.848 279.195C870.293 283.708 862.101 280.774 855.848 282.195C840.503 285.683 828.6 286.908 811.848 286.195C804.16 285.868 795.791 280.875 788.848 284.195C784.939 286.065 790.903 293.38 788.848 297.195C787.742 299.25 783.614 298.72 781.848 297.195C775.742 291.921 771.008 285.11 766.848 278.195C748.78 248.159 742.126 232.488 736.43 198.316C732.964 177.518 734.097 170.653 735.43 153.316" stroke="#453613" stroke-width="22" stroke-linecap="round" stroke-linejoin="round"/>
<defs>
<filter id="filter0_df_0_275" x="87.4476" y="32.4476" width="821.097" height="1049.1" filterUnits="userSpaceOnUse" color-interpolation-filters="sRGB">
<feFlood flood-opacity="0" result="BackgroundImageFix"/>
<feColorMatrix in="SourceAlpha" type="matrix" values="0 0 0 0 0 0 0 0 0 0 0 0 0 0 0 0 0 0 127 0" result="hardAlpha"/>
<feOffset/>
<feColorMatrix type="matrix" values="0 0 0 0 0 0 0 0 0 0 0 0 0 0 0 0 0 0 1 0"/>
<feBlend mode="normal" in2="BackgroundImageFix" result="effect1_dropShadow_0_275"/>
<feBlend mode="normal" in="SourceGraphic" in2="effect1_dropShadow_0_275" result="shape"/>
<feGaussianBlur stdDeviation="40.7742" result="effect2_foregroundBlur_0_275"/>
</filter>
<filter id="filter1_df_0_275" x="87.4476" y="32.4476" width="821.097" height="1049.1" filterUnits="userSpaceOnUse" color-interpolation-filters="sRGB">
<feFlood flood-opacity="0" result="BackgroundImageFix"/>
<feColorMatrix in="SourceAlpha" type="matrix" values="0 0 0 0 0 0 0 0 0 0 0 0 0 0 0 0 0 0 127 0" result="hardAlpha"/>
<feOffset/>
<feColorMatrix type="matrix" values="0 0 0 0 0 0 0 0 0 0 0 0 0 0 0 0 0 0 1 0"/>
<feBlend mode="normal" in2="BackgroundImageFix" result="effect1_dropShadow_0_275"/>
<feBlend mode="normal" in="SourceGraphic" in2="effect1_dropShadow_0_275" result="shape"/>
<feGaussianBlur stdDeviation="40.7742" result="effect2_foregroundBlur_0_275"/>
</filter>
<linearGradient id="paint0_linear_0_275" x1="81.1961" y1="128.072" x2="214.86" y2="1041.43" gradientUnits="userSpaceOnUse">
<stop stop-color="#FEDE75"/>
<stop offset="1" stop-color="#FFB017"/>
</linearGradient>
<linearGradient id="paint1_linear_0_275" x1="286.166" y1="709.687" x2="315.539" y2="1017.51" gradientUnits="userSpaceOnUse">
<stop stop-color="#FEDE75"/>
<stop offset="1" stop-color="#FFB017"/>
</linearGradient>
<linearGradient id="paint2_linear_0_275" x1="-20.9451" y1="272.528" x2="360.09" y2="1005.98" gradientUnits="userSpaceOnUse">
<stop stop-color="#FEDE75"/>
<stop offset="1" stop-color="#FFB017"/>
</linearGradient>
</defs>
</svg>
